HIERARCHY
ROOT Hips
{
	OFFSET 0.000000 0.000000 0.000000
	CHANNELS 6 Xposition Yposition Zposition Zrotation Yrotation Xrotation 
	JOINT LeftUpLeg_virtual
	{
		OFFSET 0.000000 0.000000 0.000000
		CHANNELS 3 Zrotation Yrotation Xrotation
		JOINT LeftUpLeg
		{
			OFFSET 8.479694 -4.795517 -0.379053
			CHANNELS 3 Zrotation Yrotation Xrotation
			JOINT LeftLeg
			{
				OFFSET 0.485052 -32.551468 0.112863
				CHANNELS 3 Zrotation Yrotation Xrotation
				JOINT LeftFoot
				{
					OFFSET 0.438033 -32.635670 -3.012641
					CHANNELS 3 Zrotation Yrotation Xrotation
					JOINT LeftToeBase
					{
						OFFSET 0.970169 -13.225353 11.864223
						CHANNELS 3 Zrotation Yrotation Xrotation
						End Site
						{
							OFFSET 0.000000 0.000000 0.000000
						}
					}
				}
			}
		}
	}
	JOINT RightUpLeg_virtual
	{
		OFFSET 0.000000 0.000000 0.000000
		CHANNELS 3 Zrotation Yrotation Xrotation
		JOINT RightUpLeg
		{
			OFFSET -8.479694 -4.795517 -0.379053
			CHANNELS 3 Zrotation Yrotation Xrotation
			JOINT RightLeg
			{
				OFFSET -0.484100 -32.551483 0.112903
				CHANNELS 3 Zrotation Yrotation Xrotation
				JOINT RightFoot
				{
					OFFSET -0.438985 -32.635651 -3.012681
					CHANNELS 3 Zrotation Yrotation Xrotation
					JOINT RightToeBase
					{
						OFFSET -0.970169 -13.225354 11.864223
						CHANNELS 3 Zrotation Yrotation Xrotation
						End Site
						{
							OFFSET 0.000000 0.000000 0.000000
						}
					}
				}
			}
		}
	}
	JOINT Spine_virtual
	{
		OFFSET 0.000000 0.000000 0.000000
		CHANNELS 3 Zrotation Yrotation Xrotation
		JOINT Spine
		{
			OFFSET 0.000000 7.722015 1.166203
			CHANNELS 3 Zrotation Yrotation Xrotation
			JOINT Spine1
			{
				OFFSET 0.000000 12.024086 0.248766
				CHANNELS 3 Zrotation Yrotation Xrotation
				JOINT Spine2
				{
					OFFSET -0.000000 11.503036 -0.491240
					CHANNELS 3 Zrotation Yrotation Xrotation
					JOINT Neck_virtual
					{
						OFFSET 0.000000 0.000000 0.000000
						CHANNELS 3 Zrotation Yrotation Xrotation
						JOINT Neck
						{
							OFFSET 0.000000 18.430687 -3.123054
							CHANNELS 3 Zrotation Yrotation Xrotation
							JOINT Head
							{
								OFFSET -0.000000 9.051071 1.034021
								CHANNELS 3 Zrotation Yrotation Xrotation
								End Site
								{
									OFFSET 0.000000 0.000000 0.000000
								}
							}
						}
					}
					JOINT LeftShoulder_virtual
					{
						OFFSET 0.000000 0.000000 0.000000
						CHANNELS 3 Zrotation Yrotation Xrotation
						JOINT LeftShoulder
						{
							OFFSET 6.197824 13.665230 -4.064723
							CHANNELS 3 Zrotation Yrotation Xrotation
							JOINT LeftArm
							{
								OFFSET 7.778132 -0.187073 -1.709282
								CHANNELS 3 Zrotation Yrotation Xrotation
								JOINT LeftForeArm
								{
									OFFSET 21.954697 0.000000 -2.041093
									CHANNELS 3 Zrotation Yrotation Xrotation
									JOINT LeftHand
									{
										OFFSET 22.992908 0.000000 -0.870901
										CHANNELS 3 Zrotation Yrotation Xrotation
										End Site
										{
											OFFSET 0.000000 0.000000 0.000000
										}
									}
								}
							}
						}
					}
					JOINT RightShoulder_virtual
					{
						OFFSET 0.000000 0.000000 0.000000
						CHANNELS 3 Zrotation Yrotation Xrotation
						JOINT RightShoulder
						{
							OFFSET -6.197824 13.665230 -4.064723
							CHANNELS 3 Zrotation Yrotation Xrotation
							JOINT RightArm
							{
								OFFSET -7.778132 -0.187073 -1.709282
								CHANNELS 3 Zrotation Yrotation Xrotation
								JOINT RightForeArm
								{
									OFFSET -21.954697 0.000000 -2.041093
									CHANNELS 3 Zrotation Yrotation Xrotation
									JOINT RightHand
									{
										OFFSET -22.992908 0.000000 -0.870901
										CHANNELS 3 Zrotation Yrotation Xrotation
										End Site
										{
											OFFSET 0.000000 0.000000 0.000000
										}
									}
								}
							}
						}
					}
				}
			}
		}
	}
}
MOTION
Frames: 13
Frame Time: 0.033333
34.656124 79.014709 8.563950 -179.958368 6.410124 -179.774213 -2.469530 0.575768 10.205927 -0.501099 -2.071414 -28.673148 10.467413 6.188315 28.972337 -3.109135 -2.697774 -17.566150 0.000000 0.000000 0.000000 -0.931012 0.213289 10.666937 0.010219 13.144124 -28.980493 -0.702838 5.856617 30.707380 10.790468 7.687026 -19.119335 0.000000 0.000000 0.000000 3.201195 1.790179 -5.892844 -2.767688 -1.491672 -1.808849 -0.099416 -1.780071 11.398717 -0.004010 -0.155844 0.036952 -0.392641 -0.338046 13.066294 7.893126 -4.483311 -1.561393 0.000000 0.000000 0.000000 0.547021 0.312757 9.950259 -10.489893 -11.086586 0.993345 -60.028552 -4.522936 8.115808 -0.815468 -21.855649 2.742920 0.000000 0.000000 0.000000 -2.880139 1.744831 9.388626 22.390263 -0.108407 3.935911 53.138827 6.372513 14.323635 -4.961803 24.207357 -4.234312 0.000000 0.000000 0.000000 
34.592381 79.023148 8.564256 -179.790195 5.635120 -179.658318 -2.736730 0.898059 10.251061 -0.547077 -1.815767 -28.589592 10.765895 6.554786 29.187905 -2.543602 -1.937484 -17.925977 0.000000 0.000000 0.000000 -1.192636 0.733150 10.824871 -0.293737 13.841784 -28.842584 -0.135690 6.569672 31.056242 11.502693 8.647709 -19.257997 0.000000 0.000000 0.000000 3.228600 1.710265 -5.910457 -2.689229 -1.649649 -1.843882 -0.109258 -1.970439 11.402471 -0.007870 -0.382487 -0.001271 -0.382181 -0.438603 12.993847 7.895968 -4.437771 -1.561443 0.000000 0.000000 0.000000 0.554958 0.274856 9.988070 -10.539037 -11.107324 0.992795 -59.935764 -4.638613 8.347445 -0.811260 -21.907087 2.742935 0.000000 0.000000 0.000000 -2.853696 1.725092 9.408360 22.369872 -0.127028 3.969921 53.186468 6.262373 14.382867 -4.976939 24.160358 -4.247444 0.000000 0.000000 0.000000 
34.512867 79.021736 8.565470 -179.832010 5.534899 -179.657512 -2.766933 0.954709 10.231494 -0.592020 -1.742143 -28.625181 10.700474 6.537028 29.219034 -2.657554 -2.002064 -17.915265 0.000000 0.000000 0.000000 -1.207158 0.762852 10.820669 -0.366639 13.798194 -28.880591 -0.127010 6.551850 31.134492 11.470420 8.650959 -19.267282 0.000000 0.000000 0.000000 3.141572 1.824550 -5.828178 -2.630328 -1.711577 -1.779638 -0.119410 -1.959527 11.301425 0.013619 -0.280480 0.086143 -0.406134 -0.404018 12.851611 7.913871 -4.419114 -1.715535 0.000000 0.000000 0.000000 0.502786 0.296221 9.911813 -10.583639 -11.329593 1.001726 -59.718386 -4.877170 8.672209 -0.836523 -21.948567 2.782195 0.000000 0.000000 0.000000 -2.886084 1.659191 9.261512 22.240481 -0.166481 4.035625 53.301072 6.203197 14.467355 -5.006997 24.095676 -4.267739 0.000000 0.000000 0.000000 
34.437656 79.020096 8.592297 -179.862254 5.329063 -179.664766 -2.437401 0.978800 10.234793 -1.083812 -1.766022 -28.689247 10.756414 6.441026 29.236539 -2.847855 -2.138808 -17.848237 0.000000 0.000000 0.000000 -1.234840 0.766208 10.840961 -0.433628 13.649754 -28.940328 -0.100965 6.496623 31.201380 11.415830 8.656959 -19.277205 0.000000 0.000000 0.000000 3.026787 1.885383 -5.713141 -2.502936 -1.783502 -1.712750 -0.118415 -2.018514 11.150273 -0.035388 -0.303789 0.073577 -0.393867 -0.334828 12.802500 7.794539 -4.345672 -1.847374 0.000000 0.000000 0.000000 0.555564 0.221601 9.767849 -10.725436 -11.227184 1.105545 -59.485846 -5.022299 9.157301 -0.803477 -22.037634 2.705155 0.000000 0.000000 0.000000 -2.908618 1.811240 9.184794 22.104743 -0.067138 4.165997 53.458214 6.125779 14.520545 -5.056789 24.171660 -4.410778 0.000000 0.000000 0.000000 
34.381210 79.025940 8.652850 -179.844167 5.155698 -179.651010 -2.578965 1.069812 10.234192 -0.864627 -1.714420 -28.813751 10.598448 6.467843 29.295446 -3.054830 -2.251950 -17.831869 0.000000 0.000000 0.000000 -1.202559 0.903253 10.867329 -0.444958 13.421517 -29.004733 -0.105178 6.447959 31.237713 11.360047 8.659884 -19.268671 0.000000 0.000000 0.000000 2.963830 2.056989 -5.625953 -2.324042 -1.859953 -1.642451 -0.101998 -1.987772 11.070325 0.000097 -0.245644 0.025605 -0.430339 -0.462172 12.682399 7.635591 -4.355667 -2.037415 0.000000 0.000000 0.000000 0.500721 0.376097 9.779147 -10.807433 -11.459269 1.206621 -59.168426 -5.160076 9.659868 -0.806291 -22.135632 2.720232 0.000000 0.000000 0.000000 -2.931453 1.782183 9.192268 21.895514 -0.094005 4.195327 53.681875 6.184799 14.512453 -5.074490 24.259797 -4.506053 0.000000 0.000000 0.000000 
34.333328 79.045021 8.739524 -179.828089 5.000054 -179.662238 -2.833123 1.213473 10.235779 -0.533201 -1.641979 -28.916473 10.391611 6.540511 29.338313 -3.290960 -2.391610 -17.825076 0.000000 0.000000 0.000000 -1.124467 1.049610 10.910124 -0.507616 13.151800 -29.042511 -0.176576 6.455888 31.246794 11.340105 8.679515 -19.248650 0.000000 0.000000 0.000000 2.919339 2.358647 -5.502954 -2.153268 -1.775041 -1.584802 -0.126046 -1.879476 10.959900 -0.012227 -0.229489 0.126112 -0.399492 -0.439796 12.453374 7.495180 -4.056336 -2.242551 0.000000 0.000000 0.000000 0.517203 0.171714 9.593361 -10.861207 -11.563827 1.339489 -58.934403 -5.191132 10.261419 -0.769475 -22.248752 2.726934 0.000000 0.000000 0.000000 -2.972347 1.671687 8.859535 21.916924 -0.251855 4.388463 53.924846 6.042270 14.376913 -5.173980 24.668553 -4.623933 0.000000 0.000000 0.000000 
34.305496 79.073868 8.826070 -179.904218 4.727538 -179.660927 -2.622462 1.196895 10.218232 -0.826446 -1.762096 -28.949992 10.392327 6.490673 29.291458 -3.522618 -2.581130 -17.718534 0.000000 0.000000 0.000000 -1.109561 1.045579 10.931618 -0.579508 12.814768 -29.063674 -0.139090 6.361606 31.196165 11.325283 8.640581 -19.203268 0.000000 0.000000 0.000000 2.825500 2.321210 -5.434529 -2.007749 -1.814716 -1.513574 -0.213085 -2.013433 10.911447 -0.014248 -0.402449 0.031522 -0.463999 -0.246404 12.384031 7.051206 -3.825145 -2.367160 0.000000 0.000000 0.000000 0.445398 0.474472 9.353117 -10.952229 -11.292126 1.473210 -58.873622 -5.082831 10.939864 -0.756706 -22.387707 2.835406 0.000000 0.000000 0.000000 -3.016678 1.954526 8.850187 21.923785 -0.072981 4.592778 54.123392 5.872925 14.112809 -5.269254 25.156721 -4.680836 0.000000 0.000000 0.000000 
34.299007 79.109871 8.898514 -179.937031 4.458018 -179.670134 -2.400644 1.164150 10.191756 -1.062604 -1.877200 -28.923990 10.379625 6.513839 29.200872 -3.676440 -2.710950 -17.627067 0.000000 0.000000 0.000000 -1.085241 1.062008 10.931066 -0.648043 12.461579 -29.075914 -0.023509 6.296366 31.169244 11.352319 8.589074 -19.103083 0.000000 0.000000 0.000000 2.802310 2.412014 -5.328611 -1.835328 -1.850949 -1.468424 -0.290587 -1.880191 10.775991 -0.016649 -0.262982 0.043824 -0.540183 -0.239395 12.152364 6.618693 -3.665067 -2.708418 0.000000 0.000000 0.000000 0.399791 0.360748 9.236676 -10.958542 -11.292386 1.562858 -58.826787 -5.079527 11.622135 -0.713803 -22.411294 3.029024 0.000000 0.000000 0.000000 -3.143335 1.876708 8.623901 22.184439 -0.208190 4.827705 54.223212 5.514331 13.663688 -5.478552 25.698037 -4.766459 0.000000 0.000000 0.000000 
34.294392 79.153709 8.978324 -179.940432 4.154580 -179.665968 -2.567893 1.091512 10.140837 -0.754453 -1.966879 -28.881513 10.206325 6.625565 29.091743 -3.742477 -2.779396 -17.594308 0.000000 0.000000 0.000000 -1.036084 1.026124 10.914429 -0.698534 12.062100 -29.088471 0.118778 6.236866 31.132419 11.405643 8.515958 -18.973258 0.000000 0.000000 0.000000 2.822132 2.333605 -5.265325 -1.664802 -1.697028 -1.494690 -0.385768 -1.860584 10.770932 0.012162 -0.239520 0.024650 -0.681797 -0.262005 11.941007 5.927873 -3.543276 -2.867846 0.000000 0.000000 0.000000 0.258988 0.468585 9.078478 -11.022153 -11.309441 1.776948 -58.899255 -5.358170 12.602097 -0.563438 -22.404436 3.286559 0.000000 0.000000 0.000000 -3.283962 1.834676 8.408549 22.576611 -0.137726 5.139811 54.082558 5.233206 13.349266 -5.712472 26.107707 -4.841301 0.000000 0.000000 0.000000 
34.292587 79.201920 9.072603 -179.972821 3.738376 -179.675298 -2.594860 1.003739 10.082611 -0.633150 -2.092554 -28.816507 10.008372 6.735461 28.936288 -3.774097 -2.878155 -17.576433 0.000000 0.000000 0.000000 -0.929646 0.950593 10.877643 -0.852005 11.730344 -29.096316 0.255515 6.191227 31.125445 11.446287 8.376290 -18.831059 0.000000 0.000000 0.000000 2.849901 2.340457 -5.140053 -1.512786 -1.779598 -1.498364 -0.536971 -1.741399 10.575348 -0.026718 -0.134706 0.064828 -0.801876 -0.292230 11.615144 5.190005 -3.174317 -3.239619 0.000000 0.000000 0.000000 0.230658 0.415004 8.920269 -11.154634 -11.133595 1.965350 -59.018674 -5.768938 13.666497 -0.283293 -22.256593 3.568642 0.000000 0.000000 0.000000 -3.382240 1.876580 8.131035 23.158023 -0.021357 5.523451 53.662286 5.007212 12.946096 -5.899327 26.260626 -4.774718 0.000000 0.000000 0.000000 
34.302341 79.250648 9.151214 179.929941 3.246833 -179.680434 -2.209202 0.781674 10.035945 -1.097321 -2.307314 -28.721239 9.965602 6.726130 28.730590 -3.800510 -3.052295 -17.470586 0.000000 0.000000 0.000000 -0.878944 0.704635 10.813731 -0.951939 11.387839 -29.062776 0.362942 6.121806 31.097875 11.477241 8.185882 -18.709503 0.000000 0.000000 0.000000 2.847857 2.236749 -5.036985 -1.367484 -1.656988 -1.597630 -0.679125 -1.729786 10.448377 -0.013368 -0.174438 0.056732 -0.931975 -0.159135 11.404255 4.317251 -2.808751 -3.449990 0.000000 0.000000 0.000000 0.104967 0.529474 8.673637 -11.185589 -11.000691 2.081490 -59.154315 -6.172850 14.835555 0.082988 -22.233575 4.010425 0.000000 0.000000 0.000000 -3.483198 1.919852 7.949550 23.657798 0.300488 5.803435 52.953080 5.156651 12.464083 -6.026262 26.087233 -4.621563 0.000000 0.000000 0.000000 
34.333057 79.299599 9.202914 179.923343 2.691284 -179.690283 -2.246239 0.543218 9.982982 -0.906011 -2.390722 -28.664777 9.768929 6.813823 28.609210 -3.770807 -3.201545 -17.402719 0.000000 0.000000 0.000000 -0.709874 0.416677 10.706557 -1.029504 11.080942 -28.944009 0.424186 6.133875 31.091554 11.568308 8.061490 -18.667445 0.000000 0.000000 0.000000 2.923457 2.072338 -4.924995 -1.187813 -1.534645 -1.749702 -0.782964 -1.679564 10.259896 -0.007705 -0.132970 0.125765 -1.065166 -0.183716 11.079316 3.400490 -2.522727 -3.702641 0.000000 0.000000 0.000000 0.034039 0.443109 8.431889 -11.230156 -10.675416 2.199073 -58.969825 -6.359247 15.946730 0.578616 -22.715580 4.588714 0.000000 0.000000 0.000000 -3.561884 1.896300 7.813316 24.230591 0.785916 6.234610 51.920639 5.547653 11.941411 -6.157681 25.748155 -4.529133 0.000000 0.000000 0.000000 
34.395317 79.344582 9.209019 179.935460 2.054292 -179.685188 -2.251422 0.158806 9.932550 -0.695947 -2.471441 -28.622377 9.584773 6.891054 28.548661 -3.735691 -3.399224 -17.255197 0.000000 0.000000 0.000000 -0.471252 -0.058360 10.550189 -1.105593 10.798464 -28.750923 0.453901 6.152766 31.082623 11.652093 7.918166 -18.732023 0.000000 0.000000 0.000000 3.024567 1.665251 -4.968099 -1.030206 -1.450567 -1.997485 -0.871604 -1.782495 10.252677 -0.014176 -0.124243 0.017693 -1.166388 -0.049421 10.975919 2.449771 -2.097459 -3.705872 0.000000 0.000000 0.000000 0.012505 0.607891 8.242072 -11.086628 -10.114710 2.271485 -58.250551 -5.856985 16.894881 1.140164 -24.478983 5.379431 0.000000 0.000000 0.000000 -3.594069 2.072202 7.745510 24.621205 1.460103 6.540217 50.669355 6.008581 11.097418 -6.233430 25.540821 -4.384034 0.000000 0.000000 0.000000 
